<svg id="Layer_1" data-name="Layer 1" xmlns="http://www.w3.org/2000/svg" viewBox="0 0 33.78 33.56"><defs><style>.cls-1{fill:#fff;}.cls-2{opacity:0.4;}.cls-3{fill:#333;}</style></defs><path class="cls-1" d="M408.15,307l3-1.72-3-1.72a12.12,12.12,0,0,0-10.25-10.25l-1.55-2.69-1.52,2.63a12.13,12.13,0,0,0-10.64,10.39l-2.84,1.64,2.84,1.65a12.15,12.15,0,0,0,10.39,10.35l1.67,2.89,1.69-2.92A12.1,12.1,0,0,0,408.15,307Z" transform="translate(-379.35 -288.65)"/><g class="cls-2"><path d="M396.35,290.65l1.55,2.69a12.12,12.12,0,0,1,10.25,10.25l3,1.72-3,1.72a12.1,12.1,0,0,1-10.21,10.25l-1.69,2.92-1.67-2.89A12.15,12.15,0,0,1,384.19,307l-2.84-1.65,2.84-1.64a12.13,12.13,0,0,1,10.64-10.39l1.52-2.63m0-2-.87,1.5-1.27,2.21a13.07,13.07,0,0,0-10.93,10.69l-2.43,1.4-1.5.86,1.5.87,2.43,1.4A13.11,13.11,0,0,0,394,318.22l1.43,2.48.86,1.5.87-1.5,1.45-2.51a13.17,13.17,0,0,0,10.49-10.53l2.57-1.48,1.5-.87-1.5-.86L409.06,303a13.17,13.17,0,0,0-10.53-10.54l-1.32-2.28-.86-1.5Z" transform="translate(-379.35 -288.65)"/></g><circle class="cls-3" cx="396.18" cy="305.31" r="10.61" transform="translate(-416.86 265.85) rotate(-67.5)"/><circle class="cls-1" cx="20.07" cy="10.89" r="2.62"/><path class="cls-1" d="M389.13,313.75l5.15-4a.34.34,0,0,0-.18-.61l-2.34-.18L388.53,313Z" transform="translate(-379.35 -288.65)"/><path class="cls-1" d="M400,303.85l.87.33a1,1,0,0,0,.91-.11l1.81-1.22c.86-.33.91.31.79.76l-2.62,2.07a1.1,1.1,0,0,1-1.09.15l-1.72-.7Z" transform="translate(-379.35 -288.65)"/><path class="cls-1" d="M398.19,312.33l2.45-3.33a.75.75,0,0,0-.41-1.16l-3.51-1a.33.33,0,0,1-.14-.54l2.36-2.6a.93.93,0,0,0,.22-.87l-.48-1.81-2.44.77-2.88-1.26a.75.75,0,0,0-1,.33l-1.28,2.37c0,.44.35.69.75.29l1.16-1.08a.42.42,0,0,1,.54,0l.59.44a.35.35,0,0,1,.09.47l-2.43,3.79a.79.79,0,0,0,.59,1.21l6.13.57-1.2,2.92C397.21,312.21,397.55,312.61,398.19,312.33Z" transform="translate(-379.35 -288.65)"/></svg>