<svg width="512" height="512" viewBox="0 0 512 512" fill="none" xmlns="http://www.w3.org/2000/svg">
<mask id="path-1-outside-1_25:2" maskUnits="userSpaceOnUse" x="21" y="14" width="470" height="485" fill="black">
<rect fill="white" x="21" y="14" width="470" height="485"/>
<path d="M46 113C46 72.131 79.1309 39 120 39H392C432.869 39 466 72.1309 466 113V399.293C466 440.162 432.869 473.293 392 473.293H120C79.1309 473.293 46 440.162 46 399.293V113Z"/>
</mask>
<path d="M46 113C46 72.131 79.1309 39 120 39H392C432.869 39 466 72.1309 466 113V399.293C466 440.162 432.869 473.293 392 473.293H120C79.1309 473.293 46 440.162 46 399.293V113Z" fill="#333333"/>
<path d="M120 64H392V14H120V64ZM441 113V399.293H491V113H441ZM392 448.293H120V498.293H392V448.293ZM71 399.293V113H21V399.293H71ZM120 448.293C92.9381 448.293 71 426.355 71 399.293H21C21 453.969 65.3238 498.293 120 498.293V448.293ZM441 399.293C441 426.355 419.062 448.293 392 448.293V498.293C446.676 498.293 491 453.969 491 399.293H441ZM392 64C419.062 64 441 85.9381 441 113H491C491 58.3238 446.676 14 392 14V64ZM120 14C65.3238 14 21 58.3239 21 113H71C71 85.9381 92.9381 64 120 64V14Z" fill="white" mask="url(#path-1-outside-1_25:2)"/>
<mask id="path-3-outside-2_25:2" maskUnits="userSpaceOnUse" x="21" y="14" width="470" height="280" fill="black">
<rect fill="white" x="21" y="14" width="470" height="280"/>
<path fill-rule="evenodd" clip-rule="evenodd" d="M120 39C79.1309 39 46 72.1309 46 113V195C46 235.869 79.1309 269 120 269H392C432.869 269 466 235.869 466 195V113C466 72.1309 432.869 39 392 39H120Z"/>
</mask>
<path fill-rule="evenodd" clip-rule="evenodd" d="M120 39C79.1309 39 46 72.1309 46 113V195C46 235.869 79.1309 269 120 269H392C432.869 269 466 235.869 466 195V113C466 72.1309 432.869 39 392 39H120Z" fill="#333333"/>
<path d="M71 113C71 85.9381 92.9381 64 120 64V14C65.3238 14 21 58.3238 21 113H71ZM71 195V113H21V195H71ZM120 244C92.9381 244 71 222.062 71 195H21C21 249.676 65.3238 294 120 294V244ZM392 244H120V294H392V244ZM441 195C441 222.062 419.062 244 392 244V294C446.676 294 491 249.676 491 195H441ZM441 113V195H491V113H441ZM392 64C419.062 64 441 85.9381 441 113H491C491 58.3238 446.676 14 392 14V64ZM120 64H392V14H120V64Z" fill="white" mask="url(#path-3-outside-2_25:2)"/>
<path d="M173.905 300.048C206.037 214.852 257.61 158.861 280.738 140.702C269 205.5 272.309 226.644 274.691 251.199H331.337C340.833 251.199 347.561 260.462 344.117 269.312C312.438 350.721 253.861 404.947 226.864 422.717L228.778 415.651C236.994 385.312 241.157 354.019 241.157 322.587V318.267H186.803C177.28 318.267 170.545 308.958 173.905 300.048Z" fill="white"/>
</svg>
